<?xml version="1.0" standalone="no"?>
<!DOCTYPE svg PUBLIC "-//W3C//DTD SVG 20010904//EN"
 "http://www.w3.org/TR/2001/REC-SVG-20010904/DTD/svg10.dtd">
<svg version="1.0" xmlns="http://www.w3.org/2000/svg"
 width="96.000000pt" height="96.000000pt" viewBox="0 0 96.000000 96.000000"
 preserveAspectRatio="xMidYMid meet">
<metadata>
Created by potrace 1.11, written by Peter Selinger 2001-2013
</metadata>
<g transform="translate(0.000000,96.000000) scale(0.100000,-0.100000)"
fill="#000000" stroke="none">
<path d="M367 851 c-342 -113 -372 -566 -47 -724 59 -29 74 -32 160 -32 88 0
101 3 162 33 182 89 266 277 208 465 -35 114 -143 226 -248 257 -70 22 -172
22 -235 1z m213 -27 c101 -30 180 -99 227 -199 24 -51 28 -73 28 -145 0 -72
-4 -94 -28 -146 -36 -77 -104 -145 -182 -181 -51 -24 -73 -28 -145 -28 -72 0
-94 4 -145 28 -78 36 -146 104 -182 181 -24 52 -28 74 -28 146 0 72 4 94 28
145 78 167 256 250 427 199z"/>
<path d="M342 688 c-6 -6 -12 -16 -12 -21 0 -5 -7 -15 -15 -24 -13 -12 -15
-44 -13 -190 3 -166 4 -176 24 -190 19 -12 27 -10 81 27 33 22 66 40 73 40 7
0 40 -18 73 -40 54 -37 62 -39 81 -27 20 14 21 24 24 190 2 131 -1 179 -10
189 -7 8 -18 23 -24 33 -10 18 -24 20 -140 23 -92 2 -133 -1 -142 -10z m248
-18 c10 -7 -26 -10 -110 -10 -84 0 -120 3 -110 10 8 5 58 10 110 10 52 0 102
-5 110 -10z m40 -209 c0 -94 -4 -172 -9 -175 -4 -3 -32 12 -61 34 -31 23 -65
40 -80 40 -15 0 -49 -17 -80 -40 -29 -22 -57 -37 -61 -34 -5 3 -9 81 -9 175
l0 169 150 0 150 0 0 -169z"/>
</g>
</svg>
